<?xml version="1.0" ?>
<!-- Uploaded to: SVG Repo, www.svgrepo.com, Generator: SVG Repo Mixer Tools -->
<svg fill="#000000" width="800px" height="800px" viewBox="0 0 96 96" xmlns="http://www.w3.org/2000/svg">
<title/>
<g id="Review">
<path d="M39.5,36h-5a.5.5,0,0,0-.5.5v19a.5.5,0,0,0,.5.5h5a.5.5,0,0,0,.5-.5v-19A.5.5,0,0,0,39.5,36ZM39,55H35V37h4Z"/>
<path d="M62.5,36h-12l1.16-5.81a3.48,3.48,0,0,0-1.77-3.76l-.68-.37a.51.51,0,0,0-.68.2l-5.5,10a.5.5,0,0,0-.06.24v17A2.5,2.5,0,0,0,45.5,56H57.79a6.48,6.48,0,0,0,5.83-3.62L67,44.7a.45.45,0,0,0,0-.2v-4A4.51,4.51,0,0,0,62.5,36ZM66,44.4,62.71,52a5.48,5.48,0,0,1-4.92,3H45.5A1.5,1.5,0,0,1,44,53.5V36.63l5.2-9.45.24.13A2.5,2.5,0,0,1,50.71,30l-1.28,6.4a.53.53,0,0,0,.1.42.53.53,0,0,0,.39.18H62.5A3.5,3.5,0,0,1,66,40.5Z"/>
<path d="M69.54,20H26.46A10.47,10.47,0,0,0,16,30.46V54.54A10.47,10.47,0,0,0,26.46,65h11.8l9.35,11.81a.5.5,0,0,0,.78,0L57.74,65h11.8A10.47,10.47,0,0,0,80,54.54V30.46A10.47,10.47,0,0,0,69.54,20ZM79,54.54A9.48,9.48,0,0,1,69.54,64h-12a.49.49,0,0,0-.39.19L48,75.69l-9.11-11.5A.49.49,0,0,0,38.5,64h-12A9.48,9.48,0,0,1,17,54.54V30.46A9.48,9.48,0,0,1,26.46,21H69.54A9.48,9.48,0,0,1,79,30.46Z"/>
</g>
</svg>